<svg width="436" height="353" viewBox="0 0 436 353" fill="none" xmlns="http://www.w3.org/2000/svg">
<g clip-path="url(#clip0_38_341)">
<path d="M50.0083 353L49.6289 352.872C36.7757 348.465 26.7057 339.142 22.0941 327.38C20.8446 324.111 20.0529 320.713 19.7377 317.264L19.7068 316.935L20.0643 316.993C24.3328 317.689 28.8138 318.074 30.8103 318.224L19.6094 311.487L19.6296 311.137C19.804 307.848 22.1624 304.987 25.5859 303.91C29.042 302.75 32.927 303.618 35.3979 306.102C36.5115 307.2 37.6888 308.306 38.8271 309.376C42.7393 313.051 46.7847 316.851 49.3426 321.338C53.1896 328.25 53.3984 336.372 49.9109 343.44L50.0083 353Z" fill="#F2F2F2"/>
<path d="M279.317 347.848L279.312 347.811C278.817 337.818 276.8 327.937 273.318 318.448L273.315 318.432C273.112 317.457 273.171 316.453 273.487 315.503C274.46 312.782 277.475 311.117 280.58 311.585C283.787 312.133 287.104 311.618 289.93 310.134C291.724 309.188 293.902 309.057 295.818 309.78C297.625 310.449 298.976 311.856 299.462 313.574C299.5 313.709 299.533 313.846 299.562 313.984C299.664 324.024 301.692 333.97 305.557 343.376L305.559 343.388C305.964 345.33 305.319 347.331 303.825 348.768C302.505 349.986 300.655 350.603 298.781 350.452C295.418 350.244 291.959 350.864 288.206 352.349C286.896 352.879 285.421 352.973 284.042 352.614C281.603 351.965 279.775 350.12 279.317 347.848Z" fill="#FF5757"/>
<path d="M168.819 336.23V348.884C168.824 350.248 170.035 351.355 171.536 351.366H267.857C269.36 351.359 270.574 350.25 270.574 348.884V336.23H168.819Z" fill="#FFC5C5"/>
<path d="M10.0286 11.5024V251.094C10.0341 257.452 15.7027 262.605 22.6969 262.61H413.303C420.297 262.605 425.966 257.452 425.972 251.094V11.5024C425.955 5.1511 420.291 0.0080569 413.303 0H22.6969C15.7095 0.00808856 10.0452 5.15111 10.0286 11.5024Z" fill="#FFC5C5"/>
<path d="M410.045 8.3165H25.9554C22.2141 8.3239 19.1853 11.0827 19.185 14.4835V248.139C19.1914 251.535 22.2189 254.287 25.9554 254.293H410.045C413.781 254.287 416.809 251.535 416.815 248.139V14.4835C416.815 11.0827 413.786 8.32391 410.045 8.3165ZM313.157 174.318C312.009 176.38 309.68 177.677 307.138 177.672L307.098 177.669C303.416 177.203 299.72 176.896 296.011 176.747C296.587 177.122 297.094 177.577 297.512 178.097C298.589 179.499 298.92 181.265 298.414 182.912C297.575 185.879 297.615 189.084 298.537 192.709C298.871 193.977 298.704 195.311 298.065 196.479C296.917 198.54 294.588 199.838 292.046 199.832L292.006 199.83C283.213 198.716 274.31 198.501 265.464 199.187C265.429 199.39 265.385 199.593 265.328 199.796C264.489 202.764 264.528 205.968 265.45 209.593C265.784 210.861 265.617 212.196 264.978 213.363C263.83 215.424 261.502 216.722 258.96 216.716L258.919 216.714C249.889 215.571 240.743 215.375 231.663 216.13C231.594 218.192 231.83 220.252 232.363 222.256C232.698 223.524 232.531 224.859 231.891 226.026C230.743 228.088 228.415 229.385 225.873 229.38L225.833 229.377C214.933 227.997 203.876 227.997 192.977 229.377H192.96C191.869 229.381 190.792 229.145 189.823 228.689C187.057 227.324 185.806 224.325 186.879 221.636C187.208 220.789 187.453 219.917 187.61 219.031C177.622 217.984 167.527 218.092 157.569 219.352H157.551C156.46 219.356 155.384 219.12 154.415 218.664C151.649 217.299 150.397 214.3 151.47 211.611C152.648 208.844 152.696 205.786 151.607 202.99C151.093 201.679 151.093 200.247 151.606 198.935C144.098 198.588 136.571 198.887 129.126 199.83H129.108C128.017 199.834 126.941 199.598 125.972 199.142C123.206 197.777 121.954 194.778 123.028 192.088C124.205 189.322 124.253 186.263 123.164 183.467C122.467 181.691 122.723 179.721 123.855 178.14C124.908 176.648 126.677 175.696 128.624 175.576C128.777 175.566 128.93 175.561 129.086 175.561C132.9 176.168 136.752 176.563 140.619 176.746C138.152 175.272 137.119 172.453 138.12 169.928C139.297 167.161 139.346 164.103 138.256 161.307C137.56 159.53 137.815 157.56 138.947 155.98C138.996 155.912 139.053 155.851 139.104 155.786C136.352 155.958 133.607 156.218 130.867 156.564H130.85C129.759 156.568 128.682 156.332 127.713 155.876C124.947 154.511 123.696 151.512 124.769 148.823C125.947 146.056 125.995 142.998 124.905 140.202C124.209 138.425 124.464 136.455 125.596 134.875C126.65 133.382 128.418 132.431 130.365 132.31C130.518 132.301 130.672 132.296 130.827 132.296C135.414 133.026 140.053 133.45 144.708 133.566C143.521 132.01 143.229 130.03 143.924 128.245C145.102 125.479 145.15 122.42 144.06 119.624C143.364 117.848 143.62 115.878 144.751 114.297C145.805 112.804 147.574 111.853 149.52 111.732C149.674 111.723 149.827 111.718 149.982 111.718C153.864 112.335 157.784 112.734 161.72 112.913C160.874 111.457 160.736 109.747 161.338 108.195C162.516 105.429 162.564 102.37 161.474 99.5742C160.778 97.7978 161.034 95.8277 162.165 94.2472C163.219 92.7545 164.988 91.8033 166.934 91.6825C167.088 91.6732 167.241 91.6683 167.396 91.6683C171.964 92.395 176.583 92.819 181.218 92.9367C180.587 91.5815 180.536 90.0609 181.074 88.6731C182.252 85.9065 182.3 82.848 181.21 80.0519C180.514 78.2755 180.77 76.3054 181.901 74.7249C182.955 73.2322 184.724 72.281 186.67 72.1602C186.823 72.1509 186.977 72.146 187.132 72.146C198.011 73.8864 209.14 73.8877 220.018 72.1498H220.032C220.872 72.3071 221.738 72.3071 222.577 72.1498H222.591C233.47 73.8877 244.598 73.8864 255.477 72.146C255.632 72.146 255.786 72.1509 255.939 72.1602C257.885 72.281 259.654 73.2322 260.708 74.7249C261.839 76.3055 262.095 78.2755 261.399 80.0519C260.309 82.848 260.357 85.9065 261.535 88.6731C262.073 90.0609 262.022 91.5815 261.391 92.9367C266.026 92.8189 270.645 92.395 275.213 91.6683C275.368 91.6683 275.522 91.6732 275.675 91.6825C277.621 91.8033 279.39 92.7545 280.444 94.2472C281.575 95.8278 281.831 97.7978 281.135 99.5742C280.045 102.37 280.093 105.429 281.271 108.195C281.873 109.747 281.735 111.457 280.89 112.913C284.825 112.734 288.745 112.335 292.627 111.718C292.782 111.718 292.936 111.723 293.089 111.732C295.035 111.853 296.804 112.804 297.858 114.297C298.989 115.878 299.245 117.848 298.549 119.624C297.459 122.42 297.507 125.479 298.685 128.245C299.382 130.035 299.087 132.02 297.893 133.577C298.411 133.933 298.87 134.355 299.254 134.831C300.33 136.233 300.661 137.999 300.156 139.646C299.317 142.614 299.356 145.819 300.278 149.443C300.613 150.711 300.445 152.046 299.806 153.213C299.572 153.629 299.287 154.019 298.957 154.376C301.674 154.159 304.385 153.835 307.088 153.405H307.102C309.277 153.398 311.323 154.339 312.605 155.936C313.681 157.338 314.012 159.104 313.506 160.751C312.668 163.719 312.707 166.924 313.629 170.548C313.963 171.816 313.796 173.151 313.157 174.318Z" fill="white"/>
<path d="M397.587 40.5036H38.1961C37.4067 40.4878 36.781 39.8934 36.7983 39.1759C36.8152 38.4807 37.4312 37.9207 38.1961 37.9054H397.587C398.376 37.9212 399.002 38.5156 398.984 39.2331C398.968 39.9283 398.352 40.4883 397.587 40.5036Z" fill="#FFC5C5"/>
<path d="M218.046 225.116L218.006 225.113C207.107 223.733 196.05 223.733 185.151 225.113H185.133C184.042 225.117 182.966 224.881 181.997 224.425C179.231 223.06 177.979 220.061 179.052 217.372C180.23 214.605 180.278 211.547 179.188 208.751C178.492 206.974 178.748 205.004 179.879 203.424C180.933 201.931 182.702 200.98 184.648 200.859C184.801 200.85 184.955 200.845 185.11 200.845C195.989 202.585 207.118 202.587 217.996 200.849H218.01C220.185 200.842 222.231 201.783 223.512 203.38C224.589 204.782 224.92 206.548 224.414 208.195C223.575 211.163 223.615 214.368 224.537 217.992C224.871 219.26 224.704 220.595 224.065 221.762C222.917 223.824 220.588 225.121 218.046 225.116Z" fill="#FF5757"/>
<path d="M255.702 171.314L246.909 164.754C240.346 167.914 230.386 180.462 230.386 180.462L207.36 195.647C204.589 195.778 202.457 197.927 202.598 200.446C202.739 202.965 205.101 204.901 207.872 204.769C209.671 204.684 211.283 203.73 212.097 202.27L243.403 187.077L255.702 171.314Z" fill="#FFB8B8"/>
<path d="M270.544 146.321C275.605 150.216 276.233 157.104 271.947 161.704C271.467 162.219 270.935 162.693 270.359 163.119L264.783 167.24C264.783 167.24 250.874 185.439 243.635 187.551L225.049 196.377L216.668 188.739L233.512 176.261C233.512 176.261 241.26 169.6 242.036 164.724C242.511 161.738 248.071 153.603 253.644 147.57C257.921 142.984 265.479 142.418 270.525 146.306L270.544 146.321Z" fill="#3F3D56"/>
<path d="M252.525 343.841L244.603 343.841L240.835 316.066L252.526 316.067L252.525 343.841Z" fill="#FFB6B6"/>
<path d="M252.804 351.353L228.443 351.352V351.072C228.444 346.312 232.689 342.454 237.925 342.454L242.375 339.385L250.678 342.454L252.804 342.454L252.804 351.353Z" fill="#2F2E41"/>
<path d="M312.884 305.942L309.132 312.283L280.435 302.149L285.972 292.789L312.884 305.942Z" fill="#FFB6B6"/>
<path d="M320.295 309.275L308.759 328.778L308.487 328.645C303.875 326.391 302.147 321.165 304.626 316.973L304.626 316.972L303.76 311.957L310.665 306.763L311.672 305.061L320.295 309.275Z" fill="#2F2E41"/>
<path d="M237.548 216.65L230.556 267.492L234.052 284.538L296.977 309.596L300.473 299.269C284.388 290.322 267.194 276.783 256.36 275.787C256.36 275.787 255.462 266.765 263.223 261.196C264.789 260.073 264.446 258.553 265.08 257.175C265.515 256.228 267.248 255.241 267.691 254.269C268.266 253.01 267.555 251.758 268.133 250.478C268.458 249.758 269.69 249.713 270.013 248.993C270.564 247.764 270.203 245.862 270.74 244.648C271.888 242.054 272.991 239.518 273.998 237.14C277.133 229.739 279.34 223.875 279.061 222.608C278.187 218.636 237.548 216.65 237.548 216.65Z" fill="#2F2E41"/>
<path d="M236.343 267.345L232.686 288.816L241.917 332.634H254.153C258.549 317.911 258.775 298.56 254.59 282.189L236.343 267.345Z" fill="#2F2E41"/>
<path d="M244.204 154.531L249.845 145.597L255.901 141.181L267.262 139.593L270.419 141.799C281.778 157.58 286.015 176.732 282.248 195.278L281.361 199.644L280.798 202.415L281.042 205.727L279.146 210.549L279.407 214.08L279.546 215.966L279.686 217.859L279.881 220.501C280.23 222.009 278.471 221.81 278.72 223.139C279.157 225.473 281.116 228.932 278.14 228.943L247.375 223.139C239.559 223.168 232.283 214.697 239.829 207.838L244.204 154.531Z" fill="#3F3D56"/>
<path d="M258.605 137.104C266.855 137.104 273.544 131.024 273.544 123.524C273.544 116.025 266.855 109.945 258.605 109.945C250.354 109.945 243.665 116.025 243.665 123.524C243.665 131.024 250.354 137.104 258.605 137.104Z" fill="#FFB8B8"/>
<path d="M258.858 136.718C261.044 136.749 263.228 136.61 265.388 136.303C267.529 135.907 272.319 132.717 273.654 130.797C274.646 129.371 275.28 127.144 275.638 125.526C276.611 121.199 275.52 116.698 272.636 113.143C272.088 112.407 271.331 111.82 270.446 111.444C270.368 111.416 270.287 111.391 270.205 111.37C268.916 111.062 267.757 110.41 266.878 109.499C266.707 109.314 266.522 109.141 266.325 108.981C265.331 108.219 264.153 107.681 262.887 107.412C260.843 106.915 257.886 107.408 254.096 108.88C252.193 109.62 250.111 109.352 248.509 109.036C248.326 109.004 248.138 109.063 248.016 109.19C247.334 109.771 246.436 110.097 245.501 110.101C244.929 110.124 244.328 110.844 243.602 111.784C243.438 111.997 243.245 112.246 243.107 112.397L243.088 112.107L242.764 112.431C241.098 114.1 241.236 116.681 243.073 118.195C243.566 118.602 244.153 118.904 244.791 119.079C245.367 119.218 245.957 119.304 246.552 119.334C246.912 119.364 247.285 119.394 247.642 119.451C249.975 119.885 251.884 121.401 252.672 123.443C253.002 124.279 254.015 124.714 254.935 124.414C255.08 124.367 255.217 124.303 255.343 124.224C256.099 123.689 257.094 123.525 258.008 123.783C258.398 123.98 258.701 124.292 258.866 124.668C259.068 125.086 259.402 125.441 259.826 125.686C261.277 126.366 261.377 129.378 260.856 131.889C260.354 134.309 259.361 136.06 258.442 136.146C257.734 136.213 257.653 136.259 257.602 136.372L257.556 136.474L257.636 136.569C258.027 136.698 258.443 136.749 258.858 136.718Z" fill="#2F2E41"/>
<path d="M228.618 128.71L228.578 128.707C217.679 127.327 206.622 127.327 195.723 128.707H195.705C194.614 128.711 193.538 128.475 192.569 128.019C189.803 126.654 188.551 123.655 189.625 120.966C190.802 118.2 190.85 115.141 189.761 112.345C189.064 110.568 189.32 108.598 190.452 107.018C191.505 105.525 193.274 104.574 195.221 104.453C195.374 104.444 195.527 104.439 195.683 104.439C206.561 106.179 217.69 106.181 228.569 104.443H228.582C230.757 104.436 232.803 105.377 234.085 106.974C235.161 108.376 235.492 110.142 234.987 111.789C234.148 114.757 234.187 117.962 235.109 121.586C235.443 122.854 235.276 124.189 234.637 125.356C233.489 127.418 231.16 128.715 228.618 128.71Z" fill="#FF5757"/>
<path d="M242.589 160.693L248.77 152.006C244.579 146.437 229.745 138.866 229.745 138.866L210.56 119.792C210.105 117.304 207.517 115.622 204.78 116.036C202.042 116.449 200.192 118.802 200.647 121.29C200.942 122.905 202.166 124.253 203.854 124.823L223.977 151.374L242.589 160.693Z" fill="#FFB8B8"/>
<path d="M271.745 171.114C268.079 176.138 260.628 177.509 255.101 174.178C254.481 173.805 253.901 173.38 253.369 172.909L248.215 168.357C248.215 168.357 226.613 158.104 223.46 151.815L209.306 133.566L218.796 125.784L235.292 139.415C235.292 139.415 242.887 147.398 248.305 147.528C251.624 147.608 261.161 151.677 268.404 156.003C273.915 159.328 275.417 166.085 271.759 171.094L271.745 171.114Z" fill="#3F3D56"/>
<path d="M245.789 96.1621L245.72 96.1595C226.83 94.7749 207.667 94.7749 188.778 96.1595H188.747C186.856 96.1632 184.991 95.9265 183.312 95.4695C178.518 94.1 176.349 91.0923 178.209 88.3946C180.25 85.6196 180.333 82.5519 178.445 79.7472C177.238 77.9654 177.681 75.9894 179.642 74.404C181.468 72.9068 184.534 71.9527 187.907 71.8315C188.173 71.8222 188.439 71.8172 188.708 71.8172C207.561 73.563 226.849 73.5643 245.703 71.8211H245.726C249.495 71.8141 253.042 72.7585 255.263 74.3603C257.129 75.7666 257.702 77.538 256.826 79.1898C255.372 82.1668 255.441 85.3812 257.038 89.0169C257.618 90.2888 257.328 91.6274 256.22 92.7983C254.23 94.8662 250.195 96.1676 245.789 96.1621Z" fill="#FF5757"/>
<path d="M161.861 200.771L161.82 200.768C150.921 199.388 139.864 199.388 128.965 200.768H128.947C127.856 200.772 126.78 200.536 125.811 200.081C123.045 198.715 121.794 195.717 122.867 193.027C124.044 190.261 124.093 187.202 123.003 184.406C122.307 182.629 122.562 180.659 123.694 179.079C124.748 177.586 126.516 176.635 128.463 176.514C128.616 176.505 128.769 176.5 128.925 176.5C139.803 178.24 150.932 178.242 161.811 176.504H161.824C163.999 176.497 166.045 177.438 167.327 179.035C168.404 180.437 168.734 182.203 168.229 183.85C167.39 186.818 167.43 190.023 168.351 193.647C168.686 194.916 168.518 196.25 167.879 197.417C166.731 199.479 164.403 200.776 161.861 200.771Z" fill="#FF5757"/>
<path d="M120.668 326.475L120.704 326.48C130.599 328.481 140.461 328.934 150.01 327.824L150.026 327.825C150.999 327.865 151.988 328.175 152.91 328.728C155.548 330.38 157.04 333.81 156.42 336.797C155.716 339.866 156.056 343.311 157.379 346.506C158.222 348.536 158.241 350.746 157.43 352.481C156.677 354.12 155.219 355.119 153.497 355.176C153.362 355.18 153.226 355.179 153.087 355.173C143.166 352.767 133.239 352.31 123.753 353.823L123.741 353.823C121.803 353.742 119.859 352.597 118.516 350.745C117.38 349.121 116.864 347.117 117.108 345.282C117.485 341.972 117.048 338.359 115.771 334.237C115.314 332.795 115.296 331.298 115.72 330.008C116.486 327.732 118.4 326.365 120.668 326.475Z" fill="#FF5757"/>
<path d="M435.312 352.079L0.68755 352.241C0.30584 352.239 -0.00198715 351.956 9.65993e-06 351.609C0.00198325 351.265 0.308656 350.986 0.68755 350.984L435.312 350.822C435.694 350.824 436.002 351.107 436 351.454C435.998 351.798 435.691 352.077 435.312 352.079Z" fill="#CACACA"/>
<path d="M93.0208 28.4435C95.7318 28.4435 97.9295 26.4013 97.9295 23.8821C97.9295 21.3629 95.7318 19.3207 93.0208 19.3207C90.3097 19.3207 88.112 21.3629 88.112 23.8821C88.112 26.4013 90.3097 28.4435 93.0208 28.4435Z" fill="#3F3D56"/>
<path d="M109.978 28.4435C112.689 28.4435 114.887 26.4013 114.887 23.8821C114.887 21.3629 112.689 19.3207 109.978 19.3207C107.267 19.3207 105.07 21.3629 105.07 23.8821C105.07 26.4013 107.267 28.4435 109.978 28.4435Z" fill="#3F3D56"/>
<path d="M126.936 28.4435C129.647 28.4435 131.845 26.4013 131.845 23.8821C131.845 21.3629 129.647 19.3207 126.936 19.3207C124.225 19.3207 122.027 21.3629 122.027 23.8821C122.027 26.4013 124.225 28.4435 126.936 28.4435Z" fill="#3F3D56"/>
<path d="M146.272 27.4873C146.121 27.4873 145.971 27.4342 145.857 27.3286L142.545 24.2509C142.324 24.0459 142.324 23.7181 142.545 23.5131L145.857 20.4357C146.082 20.2275 146.45 20.2241 146.678 20.4274C146.907 20.6312 146.911 20.9654 146.687 21.1735L143.772 23.882L146.687 26.5907C146.911 26.7989 146.907 27.1331 146.678 27.3368C146.565 27.4373 146.419 27.4873 146.272 27.4873Z" fill="#3F3D56"/>
<path d="M151.838 27.4873C151.691 27.4873 151.545 27.4373 151.432 27.3368C151.203 27.1331 151.199 26.7992 151.423 26.5907L154.338 23.882L151.423 21.1735C151.199 20.9654 151.203 20.6312 151.432 20.4274C151.661 20.2234 152.029 20.2272 152.253 20.4357L155.565 23.5131C155.786 23.7182 155.786 24.0459 155.565 24.2509L152.253 27.3286C152.139 27.4342 151.989 27.4873 151.838 27.4873Z" fill="#3F3D56"/>
<path d="M325.113 19.8488H318.954C318.252 19.8488 317.683 20.3659 317.683 21.0043V26.6078C317.683 27.2462 318.252 27.7633 318.954 27.7633H325.113C325.816 27.7633 326.39 27.2462 326.39 26.6078V21.0043C326.39 20.3659 325.816 19.8488 325.113 19.8488Z" fill="#3F3D56"/>
<path d="M310.021 19.8488H303.862C303.16 19.8488 302.591 20.3659 302.591 21.0043V26.6078C302.591 27.2462 303.16 27.7633 303.862 27.7633H310.021C310.723 27.7633 311.298 27.2462 311.298 26.6078V21.0043C311.298 20.3659 310.723 19.8488 310.021 19.8488Z" fill="#3F3D56"/>
<path d="M339.335 20.1126H333.176C332.473 20.1126 331.905 20.6297 331.905 21.2681V26.8716C331.905 27.51 332.473 28.0271 333.176 28.0271H339.335C340.037 28.0271 340.612 27.51 340.612 26.8716V21.2681C340.612 20.6297 340.037 20.1126 339.335 20.1126Z" fill="#3F3D56"/>
<path d="M246.505 22.2442H197.276C196.417 22.2442 195.726 22.8774 195.726 23.653C195.726 24.4287 196.417 25.0618 197.276 25.0618H246.505C247.359 25.0618 248.055 24.4286 248.055 23.653C248.055 22.8774 247.359 22.2442 246.505 22.2442Z" fill="#3F3D56"/>
</g>
<defs>
<clipPath id="clip0_38_341">
<rect width="436" height="353" fill="white"/>
</clipPath>
</defs>
</svg>
