<svg width="97" height="73" viewBox="0 0 97 73" fill="none" xmlns="http://www.w3.org/2000/svg">
<rect x="2" y="2" width="70" height="69" stroke="black" stroke-width="4"/>
<path d="M33.8523 28.5881V25.5455H48.1875V28.5881H42.8438V43H39.196V28.5881H33.8523ZM55.8283 43V25.5455H62.8169C64.101 25.5455 65.172 25.7358 66.03 26.1165C66.888 26.4972 67.5328 27.0256 67.9647 27.7017C68.3965 28.3722 68.6124 29.1449 68.6124 30.0199C68.6124 30.7017 68.476 31.3011 68.2033 31.8182C67.9306 32.3295 67.5556 32.75 67.0783 33.0795C66.6067 33.4034 66.0669 33.6335 65.459 33.7699V33.9403C66.1238 33.9687 66.7459 34.1562 67.3255 34.5028C67.9107 34.8494 68.3851 35.3352 68.7488 35.9602C69.1124 36.5795 69.2942 37.3182 69.2942 38.1761C69.2942 39.1023 69.0641 39.929 68.6039 40.6562C68.1493 41.3778 67.476 41.9489 66.584 42.3693C65.6919 42.7898 64.5925 43 63.2857 43H55.8283ZM59.5186 39.983H62.5272C63.5556 39.983 64.3056 39.7869 64.7772 39.3949C65.2488 38.9972 65.4845 38.4687 65.4845 37.8097C65.4845 37.3267 65.3681 36.9006 65.1351 36.5312C64.9022 36.1619 64.5698 35.8722 64.138 35.6619C63.7118 35.4517 63.2033 35.3466 62.6124 35.3466H59.5186V39.983ZM59.5186 32.8494H62.2544C62.7601 32.8494 63.209 32.7614 63.601 32.5852C63.9988 32.4034 64.3113 32.1477 64.5385 31.8182C64.7715 31.4886 64.888 31.0938 64.888 30.6335C64.888 30.0028 64.6635 29.4943 64.2147 29.108C63.7715 28.7216 63.1408 28.5284 62.3226 28.5284H59.5186V32.8494ZM76.9755 43V25.5455H88.7368V28.5881H80.6658V32.7472H88.1317V35.7898H80.6658V39.9574H88.7709V43H76.9755Z" fill="#FF5757"/>
</svg>
