<svg width="165" height="128" viewBox="0 0 165 128" fill="none" xmlns="http://www.w3.org/2000/svg">
<g clip-path="url(#clip0_15_66)">
<path d="M40.1823 15.1766L18.7816 17.6639L21.1718 37.6903L42.5725 35.2029L40.1823 15.1766Z" fill="#2F2E41"/>
<path d="M29.2443 26.7207C35.0469 26.7207 39.7509 22.0787 39.7509 16.3525C39.7509 10.6263 35.0469 5.98434 29.2443 5.98434C23.4416 5.98434 18.7376 10.6263 18.7376 16.3525C18.7376 22.0787 23.4416 26.7207 29.2443 26.7207Z" fill="#FFB6B6"/>
<path d="M22.3171 0.271375C15.7696 2.0651 16.3794 4.47359 14.3955 5.99124C10.9004 8.66502 10.1868 15.296 12.6824 19.3269C13.3491 20.4039 14.6538 21.8272 14.3108 23.5676C14.0475 24.9036 12.936 25.8029 12.7267 25.9667C11.0133 27.3073 12.0604 25.8277 11.3377 26.8665C10.54 28.0131 12.1432 29.3155 11.4902 31.2787C10.9114 33.0193 9.29541 33.0658 9.21155 34.1278C9.06712 35.9564 13.6017 39.0723 17.9375 38.2819C21.7979 37.5781 24.3007 33.9965 24.9038 30.8272C25.3077 28.7042 25.1669 25.1497 23.2967 23.6307C23.0343 23.4176 22.3262 22.9102 21.6035 21.9816C21.0315 21.2468 20.2786 20.2796 20.5613 19.5186C20.8624 18.7079 22.0233 18.9813 22.6448 18.1689C23.4876 17.0673 22.1462 15.5275 22.1233 13.7996C22.0845 10.8736 25.8196 6.91496 30.2834 6.94445C35.3473 6.97787 37.8171 12.1205 38.0763 12.6837C38.6135 13.8511 38.7458 15.0255 39.0102 17.3743C39.3898 20.7451 39.6276 22.8578 38.8159 25.1494C37.6484 28.4454 35.6469 28.3366 35.3656 30.7187C34.927 34.4328 39.4517 37.5858 39.968 37.9363C43.7958 40.5345 49.1439 40.8279 49.8656 39.3701C50.5159 38.0564 46.7944 36.5631 46.4571 32.7521C46.1647 29.4496 48.7438 28.1327 47.8887 25.9407C46.9475 23.5278 43.5772 24.4949 41.7891 21.8505C40.12 19.3822 42.4445 17.6349 41.3971 12.2977C41.1755 11.1687 40.4229 7.94195 37.9016 4.95149C36.7909 3.63403 35.6612 2.29412 33.7773 1.7392C31.6683 1.11797 25.7805 -0.677435 22.3171 0.271375Z" fill="#2F2E41"/>
<path d="M18.9758 9.88886C19.5156 12.1121 23.0785 12.8183 24.5761 12.9296C25.2104 12.9768 27.3537 13.136 29.3294 12.008C30.0596 11.591 30.3045 11.2623 31.0873 11.0653C32.1472 10.7987 32.7379 11.1398 34.4951 11.4076C36.449 11.7053 37.426 11.8542 37.8593 11.3857C38.5676 10.6199 37.6984 8.48476 36.5999 7.10212C34.5685 4.54553 31.3502 4.05482 29.8492 3.8259C28.1343 3.5644 24.6542 3.03371 21.7751 5.1335C21.3902 5.41423 18.4274 7.62999 18.9758 9.88886Z" fill="#2F2E41"/>
<path d="M161.778 49.8417C161.827 49.3161 160.582 49.0271 160.651 48.5678C160.719 48.1102 161.979 48.2377 163.336 47.4425C163.58 47.2991 165.122 46.3954 164.992 45.6845C164.747 44.3372 158.715 44.868 158.181 42.9034C158.063 42.4723 158.198 41.8751 157.879 40.5213C157.753 39.9827 157.643 39.7021 157.406 39.6083C157.07 39.4754 156.772 39.8349 155.926 40.3557C154.656 41.1368 154.435 40.8768 153.521 41.5702C152.842 42.085 152.607 42.4986 152.32 42.4067C151.914 42.2767 152.121 41.3644 151.657 41.1286C151.185 40.888 150.333 41.5143 149.807 42.0628C148.82 43.0921 148.693 44.1457 148.349 45.1032C147.974 46.1437 147.169 47.5571 145.225 48.9843L127.504 61.0358C131.231 58.6277 141.646 52.1682 145.698 49.8972C146.868 49.2416 148.095 48.6057 149.407 48.946C150.671 49.2736 151.861 50.4667 153.891 51.2898C154.128 51.3859 154.791 51.6452 155.1 51.3705C155.355 51.1433 155.136 50.758 155.371 50.5424C155.687 50.2532 156.337 50.7117 157.419 50.8906C158.182 51.0167 158.771 50.9398 159.278 50.8736C159.431 50.8536 161.713 50.5414 161.778 49.8417Z" fill="#F2F2F2"/>
<path d="M132.574 41.9955C132.326 41.8203 131.824 42.3399 131.615 42.174C131.407 42.0087 131.834 41.4353 131.83 40.5489C131.829 40.389 131.825 39.3817 131.434 39.2393C130.693 38.9693 129.216 42.044 128.085 41.736C127.837 41.6684 127.579 41.4307 126.813 41.1946C126.509 41.1006 126.338 41.0728 126.223 41.1604C126.06 41.2847 126.153 41.5327 126.167 42.0929C126.19 42.9331 125.996 42.9654 126.077 43.6083C126.138 44.0856 126.276 44.3185 126.147 44.4312C125.965 44.5905 125.571 44.2271 125.32 44.3833C125.064 44.5428 125.13 45.136 125.251 45.549C125.478 46.3242 125.965 46.6897 126.342 47.1327C126.752 47.6142 127.222 48.4122 127.371 49.7656L128.252 61.8258C128.13 59.3258 127.922 52.4174 127.962 49.7997C127.973 49.0441 128.011 48.2663 128.559 47.7288C129.086 47.2113 130.023 46.9789 131.018 46.2334C131.135 46.1464 131.455 45.8999 131.407 45.6711C131.368 45.4818 131.113 45.477 131.074 45.3009C131.021 45.0646 131.437 44.8816 131.838 44.4093C132.121 44.0762 132.252 43.7686 132.366 43.5041C132.4 43.4243 132.903 42.2288 132.574 41.9955Z" fill="#F2F2F2"/>
<path d="M136.696 46.5998L137.508 45.1843L137.648 45.1335C138.299 44.8989 138.788 44.565 139.102 44.1409C139.152 44.0735 139.198 44.0035 139.245 43.9323C139.433 43.6501 139.666 43.2991 140.135 43.0314C140.398 42.8826 141.055 42.5735 141.433 42.94C141.536 43.0374 141.584 43.151 141.606 43.2586C141.626 43.2503 141.647 43.2422 141.67 43.2333C141.948 43.1286 142.116 43.1181 142.277 43.1079C142.401 43.1001 142.528 43.0921 142.767 43.0275C142.872 42.9992 142.958 42.9704 143.031 42.9463C143.252 42.8737 143.527 42.7959 143.778 42.9798C144.039 43.1855 144.019 43.5072 144.006 43.7203C143.982 44.1004 143.921 44.3423 143.88 44.5028C143.865 44.5614 143.848 44.6274 143.847 44.6508C143.841 44.8395 144.636 45.2269 144.935 45.3744C145.606 45.7037 146.187 45.9887 146.128 46.5143C146.085 46.8904 145.713 47.162 144.99 47.3423C144.765 47.3984 144.557 47.4148 144.381 47.4181C144.435 47.5412 144.457 47.6869 144.393 47.8454C144.241 48.2204 143.731 48.3411 142.877 48.2054C142.665 48.1723 142.38 48.1266 142.05 47.9673C141.895 47.8921 141.766 47.8091 141.658 47.7363C141.611 47.7954 141.548 47.8508 141.461 47.8917C141.205 48.0124 140.907 47.944 140.579 47.6751C140.214 47.3847 139.954 47.0903 139.725 46.831C139.524 46.6048 139.351 46.4107 139.18 46.3053C138.861 46.1138 138.453 46.1861 137.954 46.3004L136.696 46.5998Z" fill="#F2F2F2"/>
<path d="M143.102 39.2962L141.508 38.8808L141.423 38.7593C141.028 38.1976 140.576 37.8157 140.081 37.6237C140.002 37.5932 139.922 37.5666 139.84 37.5395C139.516 37.4322 139.113 37.2989 138.731 36.9185C138.519 36.7059 138.049 36.157 138.313 35.7029C138.382 35.5801 138.481 35.505 138.581 35.4575C138.568 35.4398 138.554 35.4217 138.54 35.4024C138.367 35.1633 138.314 35.0062 138.263 34.855C138.224 34.7387 138.184 34.6187 138.06 34.4073C138.006 34.3145 137.956 34.2393 137.913 34.1759C137.786 33.9837 137.64 33.7403 137.757 33.4543C137.892 33.1529 138.213 33.0906 138.425 33.0491C138.803 32.9751 139.056 32.9727 139.224 32.9711C139.285 32.9707 139.354 32.9699 139.377 32.9649C139.564 32.9224 139.742 32.0653 139.811 31.7431C139.963 31.0184 140.095 30.3914 140.625 30.3152C141.005 30.2603 141.366 30.5469 141.726 31.191C141.838 31.3917 141.906 31.5858 141.954 31.7531C142.061 31.6706 142.199 31.6126 142.37 31.6335C142.776 31.6835 143.024 32.1393 143.108 32.9886C143.129 33.1997 143.156 33.4836 143.084 33.8387C143.05 34.006 143.001 34.1496 142.957 34.2718C143.027 34.3015 143.097 34.3472 143.159 34.4199C143.342 34.6336 143.351 34.9356 143.171 35.3169C142.979 35.7389 142.756 36.0617 142.56 36.3467C142.389 36.5956 142.243 36.8104 142.183 37C142.076 37.3534 142.25 37.7239 142.489 38.1718L143.102 39.2962Z" fill="#F2F2F2"/>
<path d="M145.24 34.9465L146.052 33.531L146.192 33.4802C146.843 33.2456 147.332 32.9117 147.646 32.4876C147.696 32.4202 147.742 32.3502 147.789 32.279C147.977 31.9967 148.21 31.6458 148.679 31.3781C148.942 31.2293 149.599 30.9202 149.977 31.2867C150.08 31.3841 150.128 31.4977 150.15 31.6053C150.17 31.597 150.191 31.5889 150.214 31.58C150.492 31.4753 150.66 31.4648 150.821 31.4546C150.945 31.4467 151.072 31.4388 151.311 31.3742C151.416 31.3459 151.502 31.3171 151.575 31.293C151.796 31.2204 152.071 31.1426 152.322 31.3265C152.583 31.5322 152.563 31.8539 152.55 32.067C152.526 32.447 152.465 32.689 152.424 32.8495C152.409 32.908 152.392 32.9741 152.391 32.9975C152.385 33.1861 153.18 33.5736 153.479 33.7211C154.15 34.0504 154.731 34.3354 154.672 34.8609C154.629 35.2371 154.257 35.5087 153.534 35.689C153.309 35.745 153.101 35.7614 152.925 35.7647C152.979 35.8879 153.001 36.0336 152.937 36.1921C152.785 36.5671 152.275 36.6877 151.421 36.5521C151.209 36.519 150.924 36.4733 150.594 36.314C150.439 36.2388 150.31 36.1557 150.202 36.083C150.155 36.1421 150.092 36.1975 150.005 36.2384C149.749 36.3591 149.451 36.2906 149.123 36.0218C148.758 35.7314 148.498 35.4369 148.269 35.1776C148.068 34.9515 147.895 34.7574 147.724 34.6519C147.405 34.4605 146.997 34.5328 146.498 34.6471L145.24 34.9465Z" fill="#F2F2F2"/>
<path d="M127.963 61.3316L127.811 60.9611L127.46 60.7663C127.477 60.7329 127.509 60.652 127.561 60.5262C127.845 59.8372 128.709 57.7397 130.397 54.6703C131.576 52.5278 132.906 50.4101 134.353 48.3749C135.801 46.3366 137.018 44.8788 137.995 43.707C138.732 42.8233 139.449 41.9927 140.149 41.184C142.016 39.0229 143.78 36.9813 145.408 34.4896C145.772 33.9335 146.529 32.7756 146.738 31.1184C146.86 30.1572 146.781 29.17 146.501 28.1848L147.282 27.9696C147.589 29.0579 147.677 30.1509 147.542 31.2181C147.309 33.0556 146.485 34.3172 146.089 34.9234C144.432 37.4591 142.651 39.5202 140.765 41.702C140.069 42.508 139.354 43.3348 138.62 44.215C137.652 45.3758 136.446 46.821 135.016 48.8332C133.587 50.8439 132.273 52.9358 131.109 55.0512C129.442 58.0819 128.591 60.1483 128.312 60.8271C128.162 61.1894 128.131 61.2654 127.963 61.3316Z" fill="#F2F2F2"/>
<path d="M144.544 28.3544C144.517 28.3352 144.49 28.3151 144.464 28.2935C143.927 27.8649 143.652 27.1655 143.645 26.2149C143.643 25.7682 143.776 25.3558 144.042 24.5335C144.083 24.4066 144.298 23.768 144.721 22.9807C144.997 22.4661 145.149 22.2767 145.369 22.1711C145.614 22.0532 145.881 22.0395 146.137 22.0845C146.174 22.0166 146.227 21.9576 146.302 21.9119C146.612 21.7217 146.883 21.9694 147.032 22.1013C147.106 22.1695 147.197 22.2553 147.311 22.3278C147.49 22.4426 147.619 22.4581 147.815 22.4825C148.003 22.5056 148.236 22.5343 148.52 22.6612C149.082 22.9092 149.391 23.3379 149.493 23.479C150.031 24.2189 149.982 25.013 149.925 25.9325C149.913 26.1166 149.853 26.7747 149.573 27.5362C149.371 28.0857 149.204 28.2747 149.054 28.3968C148.747 28.6483 148.426 28.6893 147.656 28.7344C146.85 28.7826 146.446 28.8063 146.137 28.7753C145.418 28.7022 144.967 28.6563 144.544 28.3544Z" fill="#F2F2F2"/>
<path d="M41.5426 126.094C36.3325 127.341 30.8897 128 25.2917 128C19.2283 128 13.345 127.227 7.74456 125.77C7.13397 123.54 6.44078 121.071 5.65503 118.339C-1.39437 93.8152 12.8871 76.4277 12.8871 76.4277L16.4105 73.6841L48.1265 77.8921C51.8176 95.65 49.4153 108.827 41.5426 126.094Z" fill="#2F2E41"/>
<path d="M36.3763 29.5754L21.5391 28.1112L10.7822 37.2622L14.1205 70.2059L12.6368 76.4286L47.8751 77.8927L46.0205 69.1078L48.617 36.8962L36.3763 29.5754Z" fill="#FF5757"/>
<path d="M41.1984 46.7793H17.4589V83.3833H41.1984V46.7793Z" fill="white"/>
<path d="M37.811 51.5949H31.1778C30.9984 51.5949 30.8524 51.4508 30.8524 51.2738C30.8524 51.0967 30.9984 50.9527 31.1778 50.9527H37.811C37.9904 50.9527 38.1363 51.0967 38.1363 51.2738C38.1363 51.4508 37.9904 51.5949 37.811 51.5949Z" fill="#FF5757"/>
<path d="M37.811 54.0643H31.1778C30.9984 54.0643 30.8524 53.9203 30.8524 53.7432C30.8524 53.5662 30.9984 53.4221 31.1778 53.4221H37.811C37.9904 53.4221 38.1363 53.5662 38.1363 53.7432C38.1363 53.9203 37.9904 54.0643 37.811 54.0643Z" fill="#FF5757"/>
<path d="M37.811 56.5338H31.1778C30.9984 56.5338 30.8524 56.3897 30.8524 56.2127C30.8524 56.0357 30.9984 55.8916 31.1778 55.8916H37.811C37.9904 55.8916 38.1363 56.0357 38.1363 56.2127C38.1363 56.3897 37.9904 56.5338 37.811 56.5338Z" fill="#FF5757"/>
<path d="M37.5133 65.1769H21.3836C20.9473 65.1769 20.5924 64.8267 20.5924 64.3962C20.5924 63.9657 20.9473 63.6154 21.3836 63.6154H37.5133C37.9495 63.6154 38.3045 63.9657 38.3045 64.3962C38.3045 64.8267 37.9495 65.1769 37.5133 65.1769Z" fill="#E6E6E6"/>
<path d="M28.4393 79.3938C31.6486 80.3864 34.769 79.5569 35.4087 77.5413C36.0485 75.5256 33.9656 73.0877 30.755 72.0952C29.478 71.6813 28.1192 71.5753 26.7922 71.7859L13.1404 67.7498L4.47638 73.8663L25.0051 77.4156C25.9733 78.3362 27.1509 79.0145 28.4393 79.3938Z" fill="#FFB6B6"/>
<path d="M12.1804 36.5301C12.1804 36.5301 7.20648 39.3349 5.78536 45.295L0.100907 69.1355C0.100907 69.1355 -0.964928 72.6415 3.83133 74.3945C8.62759 76.1475 14.4897 68.6097 14.4897 68.6097L11.8125 65.9678L16.9766 43.7173L12.1804 36.5301Z" fill="#FF5757"/>
<path d="M24.739 75.8701C21.4027 76.2888 18.4794 74.9294 18.2097 72.834C17.9401 70.7387 20.426 68.7013 23.7636 68.2829C25.0945 68.0978 26.451 68.2298 27.7196 68.668L41.8786 67.0703L49.3141 74.5984L28.4728 74.5204C27.3553 75.2581 26.075 75.7209 24.739 75.8701Z" fill="#FFB6B6"/>
<path d="M48.4014 36.5067C48.4014 36.5067 52.7963 40.1329 53.1303 46.2469L54.4663 70.703C54.4663 70.703 54.889 74.3395 49.8547 75.2305C44.8204 76.1216 40.3969 67.6819 40.3969 67.6819L43.5041 65.5472L42.3962 42.7469L48.4014 36.5067Z" fill="#FF5757"/>
<path d="M28.5868 49.3416H20.0554V59.5907H28.5868V49.3416Z" fill="#FF5757"/>
<path d="M22.3329 56.9918L21.7469 59.5248L21.732 59.5907H20.0629C20.2632 58.7561 20.5117 57.7239 20.6267 57.2297C20.7713 56.6294 21.1497 56.2414 21.3908 56.0474C21.5132 55.9413 21.6022 55.8937 21.6022 55.8937L22.3329 56.9918Z" fill="#E6E6E6"/>
<path d="M27.9674 59.5907H26.3427L26.2092 56.8417L27.0994 55.9156L27.1254 55.89C27.1254 55.89 27.7967 56.4427 27.845 57.3761C27.8709 57.841 27.9229 58.7744 27.9674 59.5907Z" fill="#E6E6E6"/>
<path d="M114.493 65.0668C99.7059 65.0668 87.6761 53.1956 87.6761 38.6037C87.6761 24.0118 99.7059 12.1406 114.493 12.1406C129.279 12.1406 141.309 24.0119 141.309 38.6037C141.309 53.1954 129.279 65.0668 114.493 65.0668ZM114.493 12.5854C99.9544 12.5854 95.5633 31.0428 88.1268 38.6037C78.0013 48.8984 99.9544 64.622 114.493 64.622C129.031 64.622 140.858 52.9502 140.858 38.6037C140.858 24.2572 129.031 12.5854 114.493 12.5854Z" fill="#E6E6E6"/>
<path d="M116.029 44.4742C116.029 44.8839 115.692 45.2161 115.277 45.2161C114.862 45.2161 114.525 44.8839 114.525 44.4742V38.8466L112.802 40.5484C112.508 40.8385 112.032 40.8385 111.738 40.5484C111.444 40.2583 111.444 39.788 111.738 39.4979L114.745 36.5306C115.038 36.2405 115.514 36.2399 115.808 36.5292L115.809 36.5306L118.816 39.4979C119.11 39.788 119.11 40.2583 118.816 40.5484C118.522 40.8385 118.046 40.8385 117.752 40.5484L116.029 38.8466V44.4742Z" fill="#FF5757"/>
<path d="M124.298 48.1834V34.0884L117.532 27.4118H109.263C107.602 27.4118 106.256 28.7404 106.256 30.3792V48.1834C106.256 49.8222 107.602 51.1508 109.263 51.1508H121.291C122.952 51.1508 124.298 49.8222 124.298 48.1834ZM117.532 31.8629C117.532 33.092 118.542 34.0884 119.787 34.0884H122.794V48.1834C122.794 49.0028 122.121 49.6671 121.291 49.6671H109.263C108.432 49.6671 107.759 49.0028 107.759 48.1834V30.3792C107.759 29.5598 108.432 28.8955 109.263 28.8955H117.532V31.8629Z" fill="#FF5757"/>
<path d="M25.8608 52.6363L22.9589 52.9736L23.283 55.6891L26.1849 55.3518L25.8608 52.6363Z" fill="#2F2E41"/>
<path d="M24.3777 54.2017C25.1645 54.2017 25.8023 53.5722 25.8023 52.7958C25.8023 52.0194 25.1645 51.3899 24.3777 51.3899C23.5908 51.3899 22.953 52.0194 22.953 52.7958C22.953 53.5722 23.5908 54.2017 24.3777 54.2017Z" fill="#FFB6B6"/>
<path d="M23.4383 50.6153C22.5505 50.8585 22.6332 51.1851 22.3642 51.3908C21.8903 51.7534 21.7935 52.6525 22.1319 53.1991C22.2223 53.3451 22.3992 53.5381 22.3527 53.7741C22.317 53.9553 22.1663 54.0772 22.1379 54.0994C21.9056 54.2812 22.0476 54.0806 21.9496 54.2214C21.8414 54.3769 22.0588 54.5535 21.9703 54.8197C21.8918 55.0557 21.6727 55.062 21.6613 55.206C21.6417 55.454 22.2566 55.8765 22.8445 55.7693C23.3679 55.6739 23.7073 55.1882 23.7891 54.7585C23.8439 54.4706 23.8248 53.9886 23.5712 53.7827C23.5356 53.7538 23.4396 53.685 23.3416 53.5591C23.264 53.4594 23.1619 53.3283 23.2003 53.2251C23.2411 53.1152 23.3985 53.1522 23.4828 53.0421C23.5971 52.8927 23.4152 52.6839 23.4121 52.4496C23.4068 52.0529 23.9133 51.5161 24.5185 51.5201C25.2052 51.5246 25.5401 52.2219 25.5752 52.2983C25.6481 52.4566 25.666 52.6158 25.7018 52.9343C25.7533 53.3914 25.7856 53.6779 25.6755 53.9886C25.5172 54.4355 25.2458 54.4208 25.2076 54.7438C25.1482 55.2474 25.7617 55.6749 25.8317 55.7224C26.3507 56.0747 27.0759 56.1145 27.1738 55.9169C27.262 55.7387 26.7573 55.5362 26.7116 55.0195C26.672 54.5717 27.0217 54.3931 26.9057 54.0959C26.7781 53.7687 26.3211 53.8999 26.0786 53.5413C25.8523 53.2066 26.1675 52.9697 26.0255 52.246C25.9954 52.0929 25.8934 51.6554 25.5515 51.2499C25.4009 51.0712 25.2477 50.8895 24.9923 50.8143C24.7063 50.7301 23.908 50.4866 23.4383 50.6153Z" fill="#2F2E41"/>
<path d="M22.9853 51.9194C23.0585 52.2208 23.5416 52.3166 23.7447 52.3317C23.8307 52.3381 24.1213 52.3597 24.3892 52.2067C24.4882 52.1502 24.5214 52.1056 24.6276 52.0789C24.7713 52.0427 24.8514 52.089 25.0896 52.1253C25.3546 52.1657 25.4871 52.1859 25.5458 52.1223C25.6418 52.0185 25.524 51.729 25.375 51.5415C25.0996 51.1948 24.6632 51.1283 24.4597 51.0972C24.2271 51.0618 23.7552 50.9898 23.3649 51.2745C23.3127 51.3126 22.9109 51.6131 22.9853 51.9194Z" fill="#2F2E41"/>
<path d="M27.1587 55.9522L26.8657 59.5907H21.7506L21.7469 59.5248L21.3908 56.0474L21.3871 56.0071L22.4702 55.0884L22.804 54.8029L23.0303 54.6125L23.6127 54.6711L25.2892 54.8358H25.293L25.8568 55.1726L26.6988 55.6777L27.0994 55.9156L27.1587 55.9522Z" fill="#E6E6E6"/>
</g>
<defs>
<clipPath id="clip0_15_66">
<rect width="165" height="128" fill="white"/>
</clipPath>
</defs>
</svg>
